<?xml version="1.0" encoding="UTF-8"?>
<svg version="1.1" xmlns="http://www.w3.org/2000/svg" width="512" height="512">
<path d="M0 0 C12.47271525 10.60763633 18.96694186 24.73584575 21.32519531 40.71582031 C23.39799916 67.31680306 18.12542502 91.65799815 1.32519531 112.71582031 C-5.16369358 119.96026476 -5.16369358 119.96026476 -8.67480469 121.71582031 C-8.34480469 124.35582031 -8.01480469 126.99582031 -7.67480469 129.71582031 C-6.71832031 129.61914062 -5.76183594 129.52246094 -4.77636719 129.42285156 C0.45304665 129.4294311 4.47056064 131.93602153 8.95019531 134.40332031 C9.78292969 134.83837891 10.61566406 135.2734375 11.47363281 135.72167969 C15.07634279 137.65784946 17.87961924 139.21073237 20.60644531 142.30175781 C25.0517272 146.24886155 30.54068582 147.14439956 36.20019531 148.65332031 C38.64822115 149.3436477 41.09485507 150.03893099 43.54003906 150.73925781 C44.71421387 151.07538086 45.88838867 151.41150391 47.09814453 151.7578125 C62.36300073 156.28945842 78.14931977 162.68441222 86.62988281 176.90332031 C92.76754551 189.44744846 92.47302711 204.84444437 92.56347656 218.49707031 C92.57154831 219.67297729 92.57962006 220.84888428 92.5879364 222.0604248 C92.60166999 224.52431811 92.61243928 226.98822959 92.62036133 229.45214844 C92.63198354 231.97564251 92.6525924 234.49911012 92.68188477 237.02246094 C92.72427527 240.68083271 92.74067926 244.33848449 92.75097656 247.99707031 C92.76848465 249.12826294 92.78599274 250.25945557 92.80403137 251.42492676 C92.79964302 252.99301086 92.79964302 252.99301086 92.79516602 254.59277344 C92.80396538 255.9719696 92.80396538 255.9719696 92.8129425 257.37902832 C92.32519531 259.71582031 92.32519531 259.71582031 90.57465267 261.3382746 C88.05402087 262.88188489 86.76995722 263.0915038 83.84613037 263.09334373 C82.94888371 263.10116698 82.05163704 263.10899022 81.12720108 263.11705053 C80.14549816 263.11035836 79.16379524 263.1036662 78.15234375 263.09677124 C77.10635891 263.10145121 76.06037407 263.10613118 74.98269272 263.11095297 C71.46652416 263.12294962 67.95074199 263.11342729 64.43457031 263.10400391 C61.91833264 263.10806752 59.40209675 263.11340821 56.88586426 263.11993408 C50.75418607 263.13221414 44.62265172 263.13038833 38.49097157 263.12169616 C33.50825407 263.11492478 28.52556745 263.11400052 23.54284668 263.11726761 C22.83405105 263.11772731 22.12525543 263.11818701 21.39498115 263.11866064 C19.9551382 263.1196198 18.51529526 263.12059244 17.07545233 263.12157841 C3.56967989 263.13013586 -9.93603149 263.12029263 -23.44179392 263.10417731 C-35.03381767 263.09077379 -46.62575131 263.09310179 -58.21777344 263.10693359 C-71.67476257 263.12298316 -85.13169816 263.12931185 -98.58869553 263.1200968 C-100.02328236 263.11914114 -101.4578692 263.11819803 -102.89245605 263.11726761 C-103.59832548 263.11680478 -104.30419491 263.11634196 -105.03145432 263.1158651 C-110.00897903 263.11327334 -114.98646981 263.11765022 -119.96398926 263.12470627 C-126.66165373 263.13399194 -133.35912138 263.12739392 -140.05677795 263.1100235 C-142.51908586 263.10604698 -144.98140806 263.10721249 -147.44371033 263.11381149 C-150.79665374 263.12197087 -154.14904518 263.11177291 -157.50195312 263.09677124 C-158.48365604 263.10346341 -159.46535896 263.11015557 -160.47681046 263.11705053 C-161.37405712 263.10922729 -162.27130379 263.10140404 -163.19573975 263.09334373 C-163.96971981 263.09285668 -164.74369987 263.09236962 -165.54113388 263.0918678 C-168.26527468 262.61175329 -169.65942299 261.58038205 -171.67480469 259.71582031 C-172.16928101 257.41940308 -172.16928101 257.41940308 -172.16064453 254.68798828 C-172.16679779 253.66196503 -172.17295105 252.63594177 -172.17929077 251.5788269 C-172.16491974 250.4664566 -172.15054871 249.3540863 -172.13574219 248.20800781 C-172.13482574 247.05398468 -172.1339093 245.89996155 -172.13296509 244.71096802 C-172.12691275 242.25795402 -172.1111183 239.80494796 -172.08642578 237.35205078 C-172.05041992 233.6540092 -172.04540317 229.95698585 -172.04589844 226.25878906 C-171.91423203 182.50337814 -171.91423203 182.50337814 -159.25683594 168.10253906 C-146.125543 155.5788638 -126.25222058 151.20849457 -109.35449219 146.50097656 C-107.65679687 146.01951172 -107.65679687 146.01951172 -105.92480469 145.52832031 C-104.54035156 145.16673828 -104.54035156 145.16673828 -103.12792969 144.79785156 C-100.49238521 143.81273377 -100.49238521 143.81273377 -98.37011719 141.40332031 C-95.01406413 138.05699494 -91.467308 136.09271672 -87.29980469 133.90332031 C-86.57019531 133.49662109 -85.84058594 133.08992187 -85.08886719 132.67089844 C-80.34190219 130.14907328 -77.04580258 129.24107512 -71.67480469 129.71582031 C-70.55165996 125.72979159 -70.55165996 125.72979159 -70.67480469 121.71582031 C-72.36628033 119.66484849 -74.26058772 118.22554637 -76.35839844 116.59472656 C-90.79138849 104.88769753 -98.22135299 83.52140647 -100.67480469 65.71582031 C-102.14008999 46.20379909 -101.02435205 26.01158919 -88.53417969 9.96582031 C-86.33102028 7.44792384 -84.05477161 5.06630092 -81.67480469 2.71582031 C-80.84529297 1.8534375 -80.84529297 1.8534375 -79.99902344 0.97363281 C-59.66793866 -18.49981315 -21.49124264 -16.47870792 0 0 Z M-76.67480469 12.71582031 C-88.87124232 28.70553444 -91.95372685 47.48322991 -89.35839844 67.10839844 C-88.49939516 71.77453762 -87.18452504 76.22142255 -85.67480469 80.71582031 C-85.14886719 82.29556641 -85.14886719 82.29556641 -84.61230469 83.90722656 C-78.55871954 100.0291009 -67.93539755 111.95974977 -52.67480469 119.71582031 C-43.8598932 123.33623039 -34.11601028 122.68131901 -25.40136719 119.10253906 C-7.91531723 110.2092042 1.495832 95.12939455 7.46044922 77.03442383 C13.14212005 59.05698382 12.0968537 38.44151711 3.38769531 21.65332031 C-3.77637773 9.61838867 -13.1571046 3.15064574 -26.67480469 -0.28417969 C-43.74585626 -3.67577934 -64.49763931 -0.84315107 -76.67480469 12.71582031 Z M-59.67480469 128.71582031 C-61.65480469 133.17082031 -61.65480469 133.17082031 -63.67480469 137.71582031 C-52.46346569 149.45634327 -52.46346569 149.45634327 -38.67480469 156.71582031 C-36.11668638 155.18959997 -34.15033816 153.76331406 -31.92480469 151.84082031 C-31.3129834 151.33574951 -30.70116211 150.83067871 -30.07080078 150.31030273 C-28.25333948 148.79941557 -26.46066259 147.26386806 -24.67480469 145.71582031 C-23.71316406 144.884375 -22.75152344 144.05292969 -21.76074219 143.19628906 C-19.71229156 141.3917016 -17.69008872 139.55737296 -15.67480469 137.71582031 C-16.99480469 134.74582031 -18.31480469 131.77582031 -19.67480469 128.71582031 C-20.35542969 128.93238281 -21.03605469 129.14894531 -21.73730469 129.37207031 C-34.63951685 133.07802487 -46.88642177 132.78485124 -59.67480469 128.71582031 Z M-82.29980469 144.21582031 C-83.11707031 144.67988281 -83.93433594 145.14394531 -84.77636719 145.62207031 C-85.40285156 145.98300781 -86.02933594 146.34394531 -86.67480469 146.71582031 C-85.2276833 150.64958916 -83.36667344 154.08942704 -81.19824219 157.67285156 C-80.52792969 158.78466797 -79.85761719 159.89648438 -79.16699219 161.04199219 C-78.46134347 162.20415041 -77.75561329 163.36625918 -77.04980469 164.52832031 C-76.33592304 165.70975557 -75.6223779 166.89139423 -74.90917969 168.07324219 C-73.16768674 170.95611902 -71.42279087 173.83687755 -69.67480469 176.71582031 C-66.49454944 176.08912295 -64.26445761 174.99081883 -61.56542969 173.21191406 C-60.81132812 172.71884766 -60.05722656 172.22578125 -59.28027344 171.71777344 C-58.50296875 171.20150391 -57.72566406 170.68523437 -56.92480469 170.15332031 C-56.13203125 169.63318359 -55.33925781 169.11304688 -54.52246094 168.57714844 C-52.56987649 167.29502973 -50.62087081 166.00780257 -48.67480469 164.71582031 C-52.36407201 160.86675422 -56.25824844 157.57915761 -60.48730469 154.34082031 C-65.22864188 150.67565005 -69.82569781 146.94096952 -74.22167969 142.86035156 C-77.21590367 140.50199772 -79.3756915 142.54489849 -82.29980469 144.21582031 Z M-9.98730469 147.09082031 C-16.66839234 152.9334901 -23.57930011 158.3882986 -30.67480469 163.71582031 C-26.90834179 166.77827145 -23.06122052 169.7063678 -19.11230469 172.52832031 C-18.54833984 172.94791016 -17.984375 173.3675 -17.40332031 173.79980469 C-14.35104636 176.04555949 -14.35104636 176.04555949 -10.72680664 176.69482422 C-7.54729894 175.17789074 -6.54004334 172.79224742 -4.78417969 169.78222656 C-4.43470276 169.18909164 -4.08522583 168.59595673 -3.72515869 167.98484802 C-2.98987911 166.73155865 -2.26065721 165.47469836 -1.53710938 164.21459961 C-0.42686198 162.28190161 0.70122323 160.36057942 1.83300781 158.44042969 C5.63174809 152.89259233 5.63174809 152.89259233 7.32519531 146.71582031 C5.86981964 145.87733227 4.41079158 145.04518097 2.95019531 144.21582031 C1.73203125 143.51972656 1.73203125 143.51972656 0.48925781 142.80957031 C-4.29642841 140.39081193 -6.50007134 143.99251517 -9.98730469 147.09082031 Z M16.32519531 154.71582031 C10.42149315 164.11564112 4.57008862 173.54397385 -1.18188477 183.03759766 C-1.6242749 183.76543457 -2.06666504 184.49327148 -2.52246094 185.24316406 C-3.11039429 186.21370728 -3.11039429 186.21370728 -3.71020508 187.20385742 C-4.67480469 188.71582031 -4.67480469 188.71582031 -5.67480469 189.71582031 C-10.59910864 190.19894959 -13.04647894 189.27246427 -17.03808594 186.43457031 C-18.00681641 185.7578125 -18.97554687 185.08105469 -19.97363281 184.38378906 C-20.96814453 183.66835938 -21.96265625 182.95292969 -22.98730469 182.21582031 C-24.98231108 180.80802813 -26.97834658 179.40169277 -28.97558594 177.99707031 C-29.85384033 177.36865234 -30.73209473 176.74023438 -31.63696289 176.09277344 C-33.4029967 174.62250921 -33.4029967 174.62250921 -34.67480469 174.71582031 C-34.67480469 200.12582031 -34.67480469 225.53582031 -34.67480469 251.71582031 C3.60519531 251.71582031 41.88519531 251.71582031 81.32519531 251.71582031 C85.03524901 214.28948219 85.03524901 214.28948219 72.39160156 176.45800781 C57.19418302 163.64506137 35.29672439 158.95651505 16.32519531 154.71582031 Z M-103.96777344 156.34082031 C-105.23081299 156.71416504 -106.49385254 157.08750977 -107.79516602 157.47216797 C-109.15127108 157.88543405 -110.50697785 158.30000911 -111.86230469 158.71582031 C-112.54231537 158.922453 -113.22232605 159.12908569 -113.92294312 159.34197998 C-136.6255299 166.09048844 -136.6255299 166.09048844 -155.04980469 180.40332031 C-165.24340414 201.18258073 -160.67480469 231.54556154 -160.67480469 251.71582031 C-122.72480469 251.71582031 -84.77480469 251.71582031 -45.67480469 251.71582031 C-45.67480469 226.63582031 -45.67480469 201.55582031 -45.67480469 175.71582031 C-52.50702895 179.51150046 -58.37373471 183.29145414 -64.56152344 187.92285156 C-67.67480469 189.71582031 -67.67480469 189.71582031 -70.69433594 190.54003906 C-75.69492142 189.15717728 -77.2081194 185.04507411 -79.67480469 180.71582031 C-80.9286816 178.61163616 -82.1825894 176.50747042 -83.43652344 174.40332031 C-86.78838464 168.70616283 -86.78838464 168.70616283 -88.36938477 165.97802734 C-89.34208933 164.30261656 -90.32662736 162.63409343 -91.31152344 160.96582031 C-91.88604248 159.98097656 -92.46056152 158.99613281 -93.05249023 157.98144531 C-96.24069131 153.52899897 -99.30045055 154.95722527 -103.96777344 156.34082031 Z " fill="#000000" transform="translate(295.6748046875,244.2841796875)"/>
<path d="M0 0 C1.3730021 1.021769 2.74676921 2.04251043 4.12109375 3.0625 C8.09610583 6.02160742 12.05135634 9.00581376 16 12 C16.74121094 11.18789063 17.48242188 10.37578125 18.24609375 9.5390625 C22.91358631 5.66204344 28.26962282 6.27049831 34.0625 6.375 C35.67608398 6.34599609 35.67608398 6.34599609 37.32226562 6.31640625 C41.89165326 6.34473475 45.13916439 6.55290741 49.2265625 8.67578125 C52.14939106 14.15447532 51.51736661 19.72008216 51.3125 25.8125 C51.27866211 27.71032227 51.27866211 27.71032227 51.24414062 29.64648438 C51.18529078 32.76552619 51.1031137 35.88215902 51 39 C51.57290771 39.27166992 52.14581543 39.54333984 52.73608398 39.82324219 C56.76222524 41.91598465 60.3686392 44.6270361 64.0625 47.25 C65.28549805 48.09111328 65.28549805 48.09111328 66.53320312 48.94921875 C71.01307427 52.13703174 74.2016903 54.59014717 76 60 C76.33045504 62.85533807 75.92819779 65.28250527 75 68 C72.4300486 71.1786241 70.87815673 72.70728109 67 74 C64.26134713 74.07051114 61.54972412 74.09357765 58.8125 74.0625 C58.06291016 74.05798828 57.31332031 74.05347656 56.54101562 74.04882812 C54.69397617 74.03706354 52.84697787 74.01912865 51 74 C51.00888245 74.84889297 51.01776489 75.69778595 51.0269165 76.57240295 C51.10721811 84.59046494 51.16804332 92.60839096 51.20724869 100.62676334 C51.22808259 104.74866518 51.25632261 108.87023346 51.30175781 112.99194336 C51.34536665 116.97309565 51.36916865 120.95392803 51.37950897 124.93530083 C51.38687351 126.45070872 51.4012548 127.96610002 51.42292023 129.48137093 C51.62492043 144.20074176 51.62492043 144.20074176 47 150 C41.40486408 155.59513592 35.04887256 156.22198974 27.50213623 156.28216553 C26.55026428 156.27968811 25.59839233 156.27721069 24.61767578 156.2746582 C23.59723175 156.27976913 22.57678772 156.28488007 21.52542114 156.29014587 C18.16532461 156.3040011 14.80543414 156.30308809 11.4453125 156.30078125 C9.10033085 156.3046705 6.75534991 156.30900564 4.41036987 156.31376648 C-0.50036911 156.32122002 -5.41103619 156.32094372 -10.32177734 156.31567383 C-16.60178331 156.3098814 -22.88149415 156.32680921 -29.16145134 156.3500185 C-34.00344553 156.36478034 -38.84536904 156.36562417 -43.68738174 156.36250877 C-46.00213327 156.36302078 -48.31688888 156.36823583 -50.6316185 156.37832069 C-53.87423397 156.39071459 -57.11627975 156.38387526 -60.35888672 156.37231445 C-61.30671021 156.37995819 -62.25453369 156.38760193 -63.2310791 156.39547729 C-69.96110318 156.34268283 -76.73795546 155.60018043 -82.15625 151.28125 C-82.5996875 150.6934375 -83.043125 150.105625 -83.5 149.5 C-83.9640625 148.9121875 -84.428125 148.324375 -84.90625 147.71875 C-87.28188978 143.98560177 -87.12136516 140.62947136 -87.11352539 136.32543945 C-87.11367142 135.652005 -87.11381744 134.97857056 -87.1139679 134.284729 C-87.11327175 132.06088021 -87.10549332 129.83711539 -87.09765625 127.61328125 C-87.09579101 126.07057236 -87.09436761 124.52786289 -87.09336853 122.9851532 C-87.08955169 118.92616132 -87.07972851 114.86720527 -87.06866455 110.80822754 C-87.05843252 106.66577641 -87.05386707 102.5233195 -87.04882812 98.38085938 C-87.03810551 90.25388982 -87.02103907 82.12694937 -87 74 C-88.62808594 74.05220703 -88.62808594 74.05220703 -90.2890625 74.10546875 C-91.73435942 74.13362388 -93.17967321 74.16092219 -94.625 74.1875 C-95.33785156 74.21263672 -96.05070313 74.23777344 -96.78515625 74.26367188 C-101.60348614 74.32997917 -104.82401711 73.66258157 -109 71 C-111.9347224 66.92925603 -112.2843719 63.8345387 -111.8125 59.02734375 C-109.24990453 52.63317523 -101.34088892 48.29101521 -96.0625 44.3125 C-95.11955078 43.59771484 -94.17660156 42.88292969 -93.20507812 42.14648438 C-87.66216402 37.95993613 -82.07311976 33.86087439 -76.38891602 29.8684082 C-70.98785345 26.0495309 -65.74928528 22.02383267 -60.5 18 C-52.44489452 11.829979 -44.32133971 5.80507253 -36 0 C-35.15179688 -0.61617187 -34.30359375 -1.23234375 -33.4296875 -1.8671875 C-21.4462525 -10.35714653 -11.44712232 -8.69651882 0 0 Z M-35.375 13.4375 C-41.4206313 18.23569956 -47.52629298 22.8964538 -53.8125 27.375 C-61.44272704 32.82276201 -68.91220245 38.46065429 -76.34985352 44.16796875 C-82.3783634 48.78770632 -88.46189243 53.31908188 -94.6472168 57.72705078 C-97.81984623 59.911093 -97.81984623 59.911093 -100 63 C-90.33351971 64.12984835 -83.60721872 63.97203565 -75.64404297 57.68212891 C-74.43854417 56.69532232 -73.24070062 55.69911439 -72.04931641 54.6953125 C-67.97539252 51.32512815 -63.71508151 48.19032773 -59.5 45 C-57.68864381 43.613488 -55.87744308 42.22677287 -54.06640625 40.83984375 C-49.36819647 37.2603804 -44.6078887 33.78465257 -39.77148438 30.39477539 C-37.02645382 28.46721096 -34.3298009 26.49965701 -31.69140625 24.4296875 C-31.15394775 24.01130615 -30.61648926 23.5929248 -30.06274414 23.16186523 C-28.60765833 22.02184722 -27.1627717 20.86884424 -25.71875 19.71484375 C-22.58623631 17.73901974 -20.70401698 17.07950541 -17 17 C-12.0238765 18.65317881 -8.31311657 21.04553465 -4.25 24.3125 C-3.11223763 25.21291292 -1.97281159 26.11122627 -0.83203125 27.0078125 C-0.21924316 27.49024414 0.39354492 27.97267578 1.02490234 28.46972656 C4.65160695 31.27963812 8.36092652 33.97746687 12.0625 36.6875 C19.86248567 42.40748949 27.6115338 48.19182298 35.32641602 54.02612305 C36.86832528 55.18820808 38.41547459 56.34338595 39.96875 57.49023438 C41.68643024 58.76693325 43.37247433 60.08602963 45.05078125 61.4140625 C48.96680841 63.51989962 52.01349982 63.45506149 56.375 63.25 C57.11105469 63.23195312 57.84710938 63.21390625 58.60546875 63.1953125 C60.40421736 63.14859176 62.20228711 63.07686183 64 63 C59.57169266 58.25278163 54.55271202 54.45967223 49.375 50.5625 C48.4463916 49.85947754 47.5177832 49.15645508 46.56103516 48.43212891 C38.21489021 42.12820124 29.80249671 35.91585829 21.36474609 29.73535156 C18.11116327 27.34773369 14.866903 24.94758442 11.62207031 22.5480957 C8.48581875 20.23176069 5.34337446 17.92393234 2.19970703 15.61767578 C0.08532477 14.06274827 -2.02187219 12.49845508 -4.12890625 10.93359375 C-5.37718233 10.01765399 -6.6258545 9.1022537 -7.875 8.1875 C-8.42776611 7.77274414 -8.98053223 7.35798828 -9.55004883 6.93066406 C-19.78438936 -0.49915786 -26.89458925 6.57785725 -35.375 13.4375 Z M28 18 C28 19.32 28 20.64 28 22 C30.3928839 24.25456246 30.3928839 24.25456246 33.4375 26.25 C34.44683594 26.95640625 35.45617187 27.6628125 36.49609375 28.390625 C38.64411789 30.09011521 38.64411789 30.09011521 40 30 C40 26.04 40 22.08 40 18 C36.04 18 32.08 18 28 18 Z M-23.15625 31.04296875 C-24.00477539 31.6980542 -24.85330078 32.35313965 -25.72753906 33.02807617 C-26.64245117 33.74068604 -27.55736328 34.4532959 -28.5 35.1875 C-35.34224436 40.46411636 -42.21781335 45.66651717 -49.25 50.6875 C-63.19924006 60.15103152 -63.19924006 60.15103152 -76 71 C-76.11005321 73.12584201 -76.14913565 75.25537822 -76.16113281 77.3840332 C-76.16609772 78.05075043 -76.17106262 78.71746765 -76.17617798 79.40438843 C-76.19083557 81.61986305 -76.19760831 83.83526602 -76.203125 86.05078125 C-76.2088745 87.58676659 -76.21463225 89.1227519 -76.22039795 90.65873718 C-76.23091886 93.88439266 -76.23675404 97.11002313 -76.24023438 100.33569336 C-76.24571454 104.46855284 -76.26972746 108.60108209 -76.29820633 112.73383808 C-76.3168357 115.90885886 -76.32203851 119.08380026 -76.32357025 122.25887108 C-76.3265978 123.78230783 -76.33462982 125.30574315 -76.34775543 126.82912636 C-76.36481916 128.96226652 -76.36293517 131.09460239 -76.35644531 133.2277832 C-76.36009094 134.44166214 -76.36373657 135.65554108 -76.36749268 136.90620422 C-75.96755885 140.27311103 -75.39574338 141.64164209 -73 144 C-69.64264863 145.11911712 -67.11794614 145.11365586 -63.58203125 145.09765625 C-62.32841797 145.09443359 -61.07480469 145.09121094 -59.78320312 145.08789062 C-58.47287109 145.07951172 -57.16253906 145.07113281 -55.8125 145.0625 C-54.47721519 145.05748317 -53.14192859 145.05292059 -51.80664062 145.04882812 C-48.53771527 145.03702695 -45.26888009 145.02056297 -42 145 C-41.98018066 143.73929687 -41.96036133 142.47859375 -41.93994141 141.1796875 C-41.86352478 136.47555508 -41.7748643 131.77171751 -41.68261719 127.06787109 C-41.64447584 125.03700609 -41.6095978 123.00607695 -41.578125 120.97509766 C-41.5321506 118.04566619 -41.47421109 115.11667067 -41.4140625 112.1875 C-41.39673569 110.83857666 -41.39673569 110.83857666 -41.37905884 109.46240234 C-41.0745966 96.28025226 -41.0745966 96.28025226 -36.75390625 91.53125 C-31.46139851 88.6143474 -24.77821919 89.42844448 -18.9375 89.5 C-17.67099609 89.48453125 -16.40449219 89.4690625 -15.09960938 89.453125 C-13.87951172 89.45828125 -12.65941406 89.4634375 -11.40234375 89.46875 C-9.73933228 89.47551758 -9.73933228 89.47551758 -8.04272461 89.48242188 C-4.29461545 90.11998839 -2.67437873 91.33530573 0 94 C1.82410021 96.99991775 2.2625621 99.2788504 2.31884766 102.76855469 C2.33871735 103.70922791 2.35858704 104.64990112 2.37905884 105.61907959 C2.39061005 106.62650208 2.40216125 107.63392456 2.4140625 108.671875 C2.43342865 109.70942932 2.4527948 110.74698364 2.4727478 111.815979 C2.53248842 115.12723592 2.5789073 118.43852771 2.625 121.75 C2.66318482 123.99610884 2.70223685 126.24220312 2.7421875 128.48828125 C2.83818542 133.99205815 2.92324916 139.49592288 3 145 C7.32328804 145.0744013 11.64623255 145.12871968 15.9699707 145.16479492 C17.43943782 145.17984066 18.90886034 145.20028238 20.37817383 145.22631836 C22.4957177 145.26288955 24.61266565 145.27976801 26.73046875 145.29296875 C28.00301514 145.3086792 29.27556152 145.32438965 30.58666992 145.34057617 C34.24222549 144.97583116 36.10074358 144.2096128 39 142 C40.41185863 139.17628275 40.20623266 136.73927594 40.28808594 133.58178711 C40.31480881 132.59353943 40.31480881 132.59353943 40.34207153 131.58532715 C40.49676719 125.49545726 40.58404396 119.40399377 40.65206528 113.31259823 C40.69818677 109.22332249 40.76544369 105.13692296 40.88476562 101.04907227 C40.99985935 97.09123926 41.06001515 93.13598245 41.0825882 89.17657661 C41.10028983 87.67368599 41.13695825 86.17088601 41.19359589 84.66895866 C41.56819013 75.80806191 41.56819013 75.80806191 37.62594604 68.12553406 C34.84993308 65.82948135 32.06281188 63.88998436 29 62 C27.56739599 60.95769127 26.14097416 59.90670896 24.7265625 58.83984375 C23.36137783 57.86957165 21.99414647 56.90217355 20.625 55.9375 C12.68128472 50.27431405 4.90416185 44.41207002 -2.83154297 38.46850586 C-12.44728379 29.26361848 -12.44728379 29.26361848 -23.15625 31.04296875 Z M-30 100 C-31.15410254 102.30820508 -31.1210297 103.60784276 -31.11352539 106.17431641 C-31.11344986 107.03505768 -31.11337433 107.89579895 -31.11329651 108.78262329 C-31.10813522 109.71287323 -31.10297394 110.64312317 -31.09765625 111.6015625 C-31.0962413 112.55316254 -31.09482635 113.50476257 -31.09336853 114.48519897 C-31.08776012 117.53183097 -31.07520619 120.57839013 -31.0625 123.625 C-31.05748608 125.68749894 -31.05292299 127.74999903 -31.04882812 129.8125 C-31.03863781 134.87505081 -31.01906402 139.93744363 -31 145 C-23.41 145 -15.82 145 -8 145 C-7.97709487 138.75198914 -7.95716661 132.50412285 -7.94506836 126.25610352 C-7.94002702 124.12881986 -7.93319409 122.00153969 -7.92456055 119.87426758 C-7.91248621 116.82372174 -7.90676986 113.77322155 -7.90234375 110.72265625 C-7.89460182 109.28672874 -7.89460182 109.28672874 -7.88670349 107.8217926 C-7.88662796 106.94095505 -7.88655243 106.06011749 -7.88647461 105.15258789 C-7.88314369 103.9834359 -7.88314369 103.9834359 -7.87974548 102.79066467 C-7.80428614 100.97633465 -7.80428614 100.97633465 -9 100 C-10.56172745 99.91314397 -12.12729344 99.89297781 -13.69140625 99.90234375 C-14.63564453 99.90556641 -15.57988281 99.90878906 -16.55273438 99.91210938 C-18.04256836 99.92467773 -18.04256836 99.92467773 -19.5625 99.9375 C-20.55958984 99.94201172 -21.55667969 99.94652344 -22.58398438 99.95117188 C-25.05604849 99.96299993 -27.52799518 99.97948151 -30 100 Z " fill="#000000" transform="translate(274,13)"/>
<path d="M0 0 C18.16819423 15.63265965 29.44730113 36.70617026 32.1328125 60.51953125 C34.25663781 89.39670436 25.01716595 113.04754776 6.66796875 134.83984375 C-7.57736484 150.16710141 -30.15004985 160.84313533 -50.99804688 161.93701172 C-79.11230403 162.78847812 -103.20662937 155.67438869 -124.15136719 136.23876953 C-140.98265845 119.94844423 -150.46153073 97.25866139 -151.0300293 74.05834961 C-151.25299483 49.62434445 -145.34172177 29.79734917 -129.625 10.8125 C-129.15964844 10.18472656 -128.69429687 9.55695313 -128.21484375 8.91015625 C-115.68720398 -7.37194437 -93.06079805 -17.97693248 -73.140625 -20.87109375 C-46.15230035 -23.30004297 -21.19140678 -17.55372921 0 0 Z M-109.625 6.8125 C-110.34042969 7.34359375 -111.05585937 7.8746875 -111.79296875 8.421875 C-126.01554364 19.89077771 -137.43770654 39.67239438 -139.625 57.8125 C-141.52112227 82.5340406 -136.47153183 104.51435226 -120.37109375 123.78125 C-107.17731235 138.72878648 -87.68608337 149.58531617 -67.55175781 150.95336914 C-42.60553506 152.01451444 -22.73930916 145.12222963 -3.52734375 129.05859375 C12.43027175 114.36997352 19.626452 93.97797084 21.65625 72.890625 C22.45059062 51.04625785 13.64021771 31.30430427 -0.4375 15.0625 C-14.45033925 0.24163663 -34.23333914 -9.64697124 -54.75390625 -10.390625 C-75.2180619 -10.75363573 -93.21432061 -5.53805575 -109.625 6.8125 Z " fill="#000000" transform="translate(156.625,170.1875)"/>
<path d="M0 0 C2.42650886 2.16049159 4.76839086 4.37199754 7.07421875 6.66015625 C7.96109375 7.50578125 8.84796875 8.35140625 9.76171875 9.22265625 C10.52484375 10.02703125 11.28796875 10.83140625 12.07421875 11.66015625 C12.59242188 12.18351562 13.110625 12.706875 13.64453125 13.24609375 C28.53547715 29.07189724 35.71008609 51.51437923 35.51171875 72.91015625 C35.50269531 74.08819824 35.49367188 75.26624023 35.484375 76.47998047 C35.07606878 97.17033083 28.30981568 115.6100933 15.07421875 131.66015625 C14.42195312 132.48644531 13.7696875 133.31273437 13.09765625 134.1640625 C-1.19737296 151.26991206 -22.85560667 162.22324114 -44.92578125 164.66015625 C-72.15981185 166.0891023 -97.20897686 160.08879307 -117.921875 141.4765625 C-136.34128047 124.40647881 -146.98637618 101.82424464 -148.05078125 76.7109375 C-148.54397523 51.15732429 -139.88833561 27.78369732 -122.38330078 9.14892578 C-90.64078031 -23.27417134 -36.13090346 -28.895075 0 0 Z M-106.92578125 10.66015625 C-108.20195312 11.67529297 -108.20195312 11.67529297 -109.50390625 12.7109375 C-124.80477333 25.54770789 -133.70854077 44.29638679 -136.67578125 63.84765625 C-138.19686559 87.04419247 -132.49323263 108.38855509 -117.12280273 126.23681641 C-102.46716165 142.62653176 -83.01217852 152.66625997 -61 154.0390625 C-39.70464888 154.81452347 -20.11381265 148.78789274 -3.92578125 134.66015625 C-3.27738281 134.16515625 -2.62898437 133.67015625 -1.9609375 133.16015625 C8.33263349 125.00683269 15.48333144 112.78296806 20.07421875 100.66015625 C20.48671875 99.58121094 20.89921875 98.50226563 21.32421875 97.390625 C28.03668117 76.62394439 24.98420265 54.3670272 15.21777344 35.24072266 C12.36672093 29.91778912 9.02807043 25.22591355 5.07421875 20.66015625 C4.18089844 19.47099609 4.18089844 19.47099609 3.26953125 18.2578125 C-9.03780391 3.69486254 -28.35031311 -4.87551381 -46.92578125 -7.33984375 C-69.22541755 -8.78934853 -89.56510231 -3.70823176 -106.92578125 10.66015625 Z " fill="#000000" transform="translate(470.92578125,167.33984375)"/>
<path d="M0 0 C2.5431041 2.23240813 4.98939557 4.52631754 7.40234375 6.8984375 C8.34400391 7.82076172 8.34400391 7.82076172 9.3046875 8.76171875 C23.84879644 24.1633035 27.95424684 43.49783722 27.671875 64.01953125 C27.04815256 83.28733128 18.02313623 99.78137255 4.40234375 112.8984375 C3.7578125 113.56230469 3.11328125 114.22617187 2.44921875 114.91015625 C-11.05194428 127.97106396 -30.86866965 133.32149417 -49.19140625 133.11328125 C-70.91437978 131.74313957 -88.9088984 122.4606968 -103.75390625 106.59375 C-117.14998198 90.87912271 -122.16432885 71.48826648 -120.81640625 51.17675781 C-118.89098409 31.12314214 -108.52182767 13.14810291 -93.42578125 0.06640625 C-66.13936871 -20.85066414 -27.12134627 -21.94178089 0 0 Z M-92.41015625 14.1484375 C-99.37126466 21.61171543 -104.47763613 31.22637514 -107.59765625 40.8984375 C-107.82195312 41.56488281 -108.04625 42.23132813 -108.27734375 42.91796875 C-112.53210955 58.15935583 -109.40544359 74.69672679 -102.53515625 88.5859375 C-93.80536519 103.75115145 -80.1092981 115.01793136 -63.2109375 119.87109375 C-45.15511682 124.1417224 -28.4425855 121.51764484 -12.484375 112.12109375 C1.4371658 103.09947414 12.00219058 88.33046449 15.93359375 72.20703125 C18.46453831 54.34278089 16.22580173 35.99134186 5.13330078 21.20703125 C-7.36285757 5.93545311 -22.99857204 -2.98001215 -42.59765625 -5.1015625 C-61.72752781 -5.91293997 -78.44817783 1.42119186 -92.41015625 14.1484375 Z " fill="#000000" transform="translate(143.59765625,182.1015625)"/>
<path d="M0 0 C1.0415625 0.0928125 2.083125 0.185625 3.15625 0.28125 C22.77065619 2.53777461 40.630284 11.29738671 53.31835938 26.58886719 C66.90980087 44.08916512 72.34338799 64.34229778 69.73486328 86.22412109 C66.71857359 106.31306404 55.83107167 122.41774684 40.125 134.875 C28.95774769 142.84954498 15.78367957 148.16539188 2 149 C0.71416016 149.07927734 0.71416016 149.07927734 -0.59765625 149.16015625 C-19.93309707 149.75869614 -38.53465308 143.47629494 -53.125 130.6875 C-54.76450023 129.14022166 -56.39013601 127.57809036 -58 126 C-58.70125 125.33484375 -59.4025 124.6696875 -60.125 123.984375 C-73.78221392 110.00707012 -78.65434046 90.48915275 -78.47094727 71.49023438 C-77.9079882 53.41581394 -71.10719173 37.42115052 -59 24 C-58.39671875 23.30390625 -57.7934375 22.6078125 -57.171875 21.890625 C-43.45391594 7.01989627 -20.28865181 -1.94548716 0 0 Z M-52 33 C-63.95351681 46.23425075 -67.93820935 62.5403613 -67.4140625 79.9453125 C-66.35467593 97.48848759 -57.21673593 111.43032401 -44.65625 123.1953125 C-32.60272623 133.48776948 -17.05390808 138.85012473 -1.1875 138.34375 C17.81585189 136.29436891 33.86237899 128.13160161 46.125 113.45703125 C56.50567636 99.38495058 60.64888257 83.28346795 59 66 C56.29430308 48.8809365 47.29039736 33.78978917 33.39501953 23.36083984 C5.61774103 3.54819507 -29.30394406 8.76946229 -52 33 Z " fill="#000000" transform="translate(419,166)"/>
<path d="M0 0 C2.25663956 -0.017217 4.51181503 -0.06110521 6.76806641 -0.10522461 C8.20425356 -0.11535158 9.64045315 -0.12386768 11.07666016 -0.13061523 C13.03708252 -0.15248901 13.03708252 -0.15248901 15.03710938 -0.17480469 C18.39697266 0.29516602 18.39697266 0.29516602 20.79199219 2.07177734 C24.03030107 6.55782526 23.52096495 11.19060644 23.45947266 16.54516602 C23.45496094 17.29024414 23.45044922 18.03532227 23.44580078 18.80297852 C23.43406512 20.63374242 23.41613116 22.46446474 23.39697266 24.29516602 C23.9515918 24.27421875 24.50621094 24.25327148 25.07763672 24.23168945 C27.60056288 24.14833054 30.12319914 24.09644734 32.64697266 24.04516602 C33.51966797 24.01165039 34.39236328 23.97813477 35.29150391 23.94360352 C41.78973418 23.84439389 41.78973418 23.84439389 44.94384766 26.18579102 C48.43941269 31.25999833 47.61983369 36.55396719 47.63720703 42.56152344 C47.64688689 44.5896954 47.67789798 46.61684243 47.70947266 48.64477539 C47.71720703 50.56966797 47.71720703 50.56966797 47.72509766 52.53344727 C47.73444336 53.7094751 47.74378906 54.88550293 47.75341797 56.09716797 C47.36134687 59.61479761 46.50623867 61.48206246 44.39697266 64.29516602 C42.04844738 65.46942866 40.659232 65.41024774 38.04541016 65.39282227 C36.76923828 65.38798828 36.76923828 65.38798828 35.46728516 65.38305664 C34.57783203 65.37467773 33.68837891 65.36629883 32.77197266 65.35766602 C31.87478516 65.3531543 30.97759766 65.34864258 30.05322266 65.34399414 C27.83440617 65.33219193 25.61572247 65.31572757 23.39697266 65.29516602 C23.44917969 66.90584961 23.44917969 66.90584961 23.50244141 68.54907227 C23.53060184 69.9852544 23.55789956 71.42145363 23.58447266 72.85766602 C23.60960937 73.56213867 23.63474609 74.26661133 23.66064453 74.99243164 C23.73215327 80.1648973 23.08993115 83.81819309 20.39697266 88.29516602 C15.01866054 91.47842717 7.91056792 90.58714249 1.83447266 90.54516602 C0.71105469 90.55290039 -0.41236328 90.56063477 -1.56982422 90.56860352 C-2.65457031 90.56602539 -3.73931641 90.56344727 -4.85693359 90.56079102 C-5.83992432 90.55853516 -6.82291504 90.5562793 -7.83569336 90.55395508 C-11.88196087 90.1755657 -14.69128478 89.32952905 -17.40380859 86.25219727 C-19.08492968 82.10689218 -18.92669577 78.40639411 -18.79052734 73.98266602 C-18.77022461 72.72873047 -18.77022461 72.72873047 -18.74951172 71.44946289 C-18.71433952 69.39775103 -18.66053783 67.34637326 -18.60302734 65.29516602 C-19.91658203 65.35317383 -21.23013672 65.41118164 -22.58349609 65.47094727 C-24.31913758 65.51785649 -26.05481758 65.56335541 -27.79052734 65.60766602 C-28.65484375 65.64956055 -29.51916016 65.69145508 -30.40966797 65.73461914 C-31.25078125 65.75073242 -32.09189453 65.7668457 -32.95849609 65.78344727 C-34.11321411 65.82272339 -34.11321411 65.82272339 -35.29125977 65.86279297 C-38.90002976 64.97670254 -40.3606869 63.19651769 -42.60302734 60.29516602 C-43.25 56.96118164 -43.25 56.96118164 -43.26708984 53.20141602 C-43.27187347 52.53227173 -43.2766571 51.86312744 -43.28158569 51.17370605 C-43.28497391 49.76511267 -43.27584656 48.3564395 -43.25488281 46.94799805 C-43.22809023 44.80020715 -43.254655 42.65763948 -43.28662109 40.51000977 C-43.28331679 39.1363004 -43.2769101 37.76259426 -43.26708984 36.38891602 C-43.2614502 35.14819336 -43.25581055 33.9074707 -43.25 32.62915039 C-42.42554364 28.38055568 -41.01820391 26.88832211 -37.60302734 24.29516602 C-35.29125977 23.72753906 -35.29125977 23.72753906 -32.95849609 23.80688477 C-32.11738281 23.82299805 -31.27626953 23.83911133 -30.40966797 23.85571289 C-29.54535156 23.89760742 -28.68103516 23.93950195 -27.79052734 23.98266602 C-26.906875 24.00522461 -26.02322266 24.0277832 -25.11279297 24.05102539 C-22.94213824 24.10969173 -20.77236044 24.19936622 -18.60302734 24.29516602 C-18.63783203 23.05379883 -18.67263672 21.81243164 -18.70849609 20.53344727 C-18.73664318 18.89153376 -18.76394235 17.24960556 -18.79052734 15.60766602 C-18.81566406 14.79104492 -18.84080078 13.97442383 -18.86669922 13.13305664 C-18.9247322 8.35500779 -18.75206605 5.16093508 -15.60302734 1.29516602 C-11.10952846 -0.95158342 -4.99754154 0.02659999 0 0 Z M-7.60302734 11.29516602 C-7.77320055 17.36745724 -7.77320055 17.36745724 -7.90087891 23.44067383 C-8.04679691 27.07019207 -8.24560113 29.65801494 -10.04052734 32.85766602 C-14.00968687 35.0842677 -17.87482688 34.97115866 -22.35302734 35.04516602 C-25.40552734 35.12766602 -28.45802734 35.21016602 -31.60302734 35.29516602 C-31.60302734 41.56516602 -31.60302734 47.83516602 -31.60302734 54.29516602 C-25.85977652 54.5441559 -25.85977652 54.5441559 -20.11572266 54.77319336 C-19.39481445 54.80880371 -18.67390625 54.84441406 -17.93115234 54.88110352 C-17.19799805 54.91252441 -16.46484375 54.94394531 -15.70947266 54.97631836 C-13.31513145 55.33874414 -11.66306881 56.03163649 -9.60302734 57.29516602 C-8.4283329 59.6445549 -8.40267846 61.24589806 -8.28662109 63.86547852 C-8.22945923 65.0761499 -8.22945923 65.0761499 -8.17114258 66.3112793 C-8.12803955 67.33721191 -8.08493652 68.36314453 -8.04052734 69.42016602 C-7.89615234 72.67891602 -7.75177734 75.93766602 -7.60302734 79.29516602 C-1.00302734 79.29516602 5.59697266 79.29516602 12.39697266 79.29516602 C12.64624614 72.84863417 12.64624614 72.84863417 12.875 66.40136719 C12.91061035 65.59675049 12.9462207 64.79213379 12.98291016 63.96313477 C13.01433105 63.14095459 13.04575195 62.31877441 13.078125 61.47167969 C13.39697266 59.29516602 13.39697266 59.29516602 15.39697266 56.29516602 C18.05615431 55.40877213 19.87761906 55.11527577 22.62744141 54.97875977 C23.35084717 54.94065186 24.07425293 54.90254395 24.81958008 54.86328125 C25.73199463 54.82017822 26.64440918 54.7770752 27.58447266 54.73266602 C30.49259766 54.58829102 33.40072266 54.44391602 36.39697266 54.29516602 C36.39697266 48.02516602 36.39697266 41.75516602 36.39697266 35.29516602 C30.32468649 35.08556232 30.32468649 35.08556232 24.25146484 34.90722656 C23.48995117 34.87411377 22.7284375 34.84100098 21.94384766 34.80688477 C21.16879883 34.78070068 20.39375 34.7545166 19.59521484 34.72753906 C16.79105754 34.17598835 15.41237065 33.31729697 13.39697266 31.29516602 C12.85107422 29.11865234 12.85107422 29.11865234 12.78759766 26.62719727 C12.7416748 25.42027222 12.7416748 25.42027222 12.69482422 24.18896484 C12.6711377 22.66372192 12.6711377 22.66372192 12.64697266 21.10766602 C12.56447266 17.86954102 12.48197266 14.63141602 12.39697266 11.29516602 C5.79697266 11.29516602 -0.80302734 11.29516602 -7.60302734 11.29516602 Z " fill="#000000" transform="translate(412.60302734375,195.704833984375)"/>
<path d="M0 0 C2.13325612 2.19912864 2.94441372 3.51084072 3.29296875 6.578125 C3.25816406 7.45984375 3.22335938 8.3415625 3.1875 9.25 C3.14689453 10.58804688 3.14689453 10.58804688 3.10546875 11.953125 C3.07066406 12.62859375 3.03585938 13.3040625 3 14 C4.485 14.061875 4.485 14.061875 6 14.125 C11.58528886 14.94070142 15.93660149 18.35552949 19.359375 22.7421875 C21.56692283 26.34145026 22.90615267 29.77686999 23 34 C21.5625 36.375 21.5625 36.375 20 38 C16.8125 38.0625 16.8125 38.0625 13 37 C11.45080636 34.82940279 10.39503257 32.67124059 9.3359375 30.2265625 C7.87109375 27.38932292 7.87109375 27.38932292 3 25 C3 32.92 3 40.84 3 49 C4.98 49.66 6.96 50.32 9 51 C16.46235873 54.90022956 20.3203539 58.9610617 23 67 C23.44804928 73.60872687 22.97824646 79.50962121 18.5234375 84.73046875 C14.31661153 88.62034208 8.91250656 92 3 92 C3.05220703 92.90492188 3.05220703 92.90492188 3.10546875 93.828125 C3.32343399 100.26328924 3.32343399 100.26328924 1.875 103.5625 C-0.81976599 105.62848726 -2.69815888 105.42151163 -6 105 C-8 103 -8 103 -8.1953125 100.1796875 C-8.17210938 99.08914063 -8.14890625 97.99859375 -8.125 96.875 C-8.10695313 95.77929688 -8.08890625 94.68359375 -8.0703125 93.5546875 C-8.04710938 92.71164062 -8.02390625 91.86859375 -8 91 C-8.99 90.95875 -9.98 90.9175 -11 90.875 C-17.04005213 90.01738611 -21.20731901 85.79268099 -25.375 81.625 C-27.49085768 78.20707606 -28.73171462 75.03241061 -29 71 C-28 68 -28 68 -26 66 C-23 65.4375 -23 65.4375 -20 66 C-17.79785771 68.12058146 -16.9141143 70.19631018 -15.6875 73 C-13.88810473 76.72928649 -13.88810473 76.72928649 -8 80 C-8 72.41 -8 64.82 -8 57 C-10.97 56.01 -13.94 55.02 -17 54 C-21.80396038 51.09319685 -25.15175602 47.33937151 -27 42 C-28.66039292 34.29473912 -27.96027245 28.76175405 -23.8125 22.08984375 C-19.89971621 16.85427226 -15.11260073 14.94491841 -9 13 C-8.96261719 12.22914063 -8.92523438 11.45828125 -8.88671875 10.6640625 C-8.82097656 9.66117188 -8.75523438 8.65828125 -8.6875 7.625 C-8.62949219 6.62726563 -8.57148437 5.62953125 -8.51171875 4.6015625 C-8.34285156 3.74304688 -8.17398438 2.88453125 -8 2 C-4.77856724 -0.14762184 -3.7404533 -0.561068 0 0 Z M-15 29 C-16.81042834 33.07346377 -17.34516794 35.00284818 -15.875 39.25 C-14.08478077 41.87565487 -12.73094564 43.41428963 -10 45 C-9.34 45 -8.68 45 -8 45 C-8 38.4 -8 31.8 -8 25 C-11.31091732 25 -12.69062521 26.74835958 -15 29 Z M3 61 C3 67.27 3 73.54 3 80 C7.62513815 79.39155511 7.62513815 79.39155511 9.75 77.875 C11.70004936 74.94992596 11.88005897 72.47828983 12 69 C10.01259185 63.85612009 8.3501331 63.67506655 3 61 Z " fill="#000000" transform="translate(100,188)"/>
<path d="M0 0 C2.09641943 2.09641943 1.18850584 6.66342889 1.203125 9.55859375 C1.20882507 10.41808121 1.21452515 11.27756866 1.22039795 12.1631012 C1.2298618 13.98477949 1.23638741 15.80647501 1.24023438 17.62817383 C1.2499473 20.42233965 1.28096008 23.21577242 1.3125 26.00976562 C1.31902895 27.77603728 1.32427985 29.54231421 1.328125 31.30859375 C1.3404718 32.14821152 1.3528186 32.98782928 1.36553955 33.85289001 C1.35644531 36.20874023 1.35644531 36.20874023 1 40 C-2.80343749 42.53562499 -5.87505274 42.28836535 -10.28125 42.265625 C-11.0911438 42.26753845 -11.9010376 42.2694519 -12.73547363 42.27142334 C-14.44686189 42.27278361 -16.15826051 42.26909816 -17.86962891 42.26074219 C-20.49014448 42.25004025 -23.10997452 42.2606426 -25.73046875 42.2734375 C-27.39323068 42.27211588 -29.05599218 42.26955343 -30.71875 42.265625 C-31.50318481 42.26967346 -32.28761963 42.27372192 -33.0958252 42.27789307 C-36.9250538 42.24486246 -38.73815682 42.17456212 -42 40 C-42.875 38.1875 -42.875 38.1875 -43 36 C-41.9362793 33.39379883 -41.9362793 33.39379883 -40 31 C-36.90551758 30.43237305 -36.90551758 30.43237305 -33.14453125 30.51171875 C-32.48289474 30.51879349 -31.82125824 30.52586823 -31.13957214 30.53315735 C-29.02939015 30.56111493 -26.9218774 30.62384153 -24.8125 30.6875 C-23.38089775 30.71258176 -21.94925383 30.73539517 -20.51757812 30.75585938 C-17.0108535 30.81094153 -13.50568729 30.89721711 -10 31 C-10.01571045 29.80455566 -10.01571045 29.80455566 -10.03173828 28.58496094 C-10.07331772 24.97333938 -10.09933261 21.36176821 -10.125 17.75 C-10.14175781 16.49574219 -10.15851563 15.24148438 -10.17578125 13.94921875 C-10.18544922 12.14130859 -10.18544922 12.14130859 -10.1953125 10.296875 C-10.21102295 8.63156738 -10.21102295 8.63156738 -10.22705078 6.93261719 C-10.00253798 4.03278082 -9.60137144 2.40170583 -8 0 C-5.11795733 -1.44102133 -3.08226581 -0.65580124 0 0 Z " fill="#000000" transform="translate(421,360)"/>
<path d="M0 0 C2.9375 0.875 2.9375 0.875 4.10888672 2.53613281 C5.1667549 5.52210133 5.16269172 8.00467757 5.1328125 11.171875 C5.12636719 12.37714844 5.11992188 13.58242188 5.11328125 14.82421875 C5.09652344 16.07847656 5.07976562 17.33273437 5.0625 18.625 C5.05347656 19.89472656 5.04445313 21.16445313 5.03515625 22.47265625 C5.01159005 25.60696093 4.97868832 28.74088541 4.9375 31.875 C5.83057861 31.84881592 6.72365723 31.82263184 7.64379883 31.7956543 C10.95939231 31.71040666 14.27382119 31.64774412 17.59008789 31.6003418 C19.02484514 31.57520476 20.45947441 31.54108892 21.89379883 31.49780273 C23.9568637 31.43710335 26.01823615 31.40878647 28.08203125 31.38671875 C29.94371948 31.34744263 29.94371948 31.34744263 31.84301758 31.30737305 C34.9375 31.875 34.9375 31.875 36.90893555 34.23364258 C37.9375 36.875 37.9375 36.875 37.25 39.625 C35.9375 41.875 35.9375 41.875 33.9375 42.875 C31.20109389 42.98616008 28.49091214 43.03911133 25.75390625 43.04296875 C24.53694313 43.04796135 24.53694313 43.04796135 23.2953949 43.05305481 C21.57803922 43.0581213 19.86067369 43.06046322 18.14331055 43.06030273 C15.51399536 43.06248837 12.88510024 43.08064436 10.25585938 43.09960938 C8.5885431 43.1025435 6.92122484 43.10452817 5.25390625 43.10546875 C4.46633438 43.11265427 3.67876251 43.11983978 2.86732483 43.12724304 C-0.9755469 43.11113717 -2.78850577 43.05766282 -6.0625 40.875 C-6.36641813 37.91915729 -6.48241091 35.17659627 -6.4609375 32.21875 C-6.46380768 31.36067749 -6.46667786 30.50260498 -6.46963501 29.61853027 C-6.47167816 27.80280905 -6.46613078 25.98706594 -6.45361328 24.17138672 C-6.43756278 21.38589444 -6.45345306 18.60185319 -6.47265625 15.81640625 C-6.47067386 14.05468428 -6.46683028 12.29296323 -6.4609375 10.53125 C-6.46701019 9.69476929 -6.47308289 8.85828857 -6.4793396 7.99645996 C-6.45068359 5.65039062 -6.45068359 5.65039062 -6.0625 1.875 C-3.0625 -0.125 -3.0625 -0.125 0 0 Z " fill="#000000" transform="translate(96.0625,359.125)"/>
<path d="M0 0 C0.81130875 -0.0033284 1.62261749 -0.0066568 2.45851135 -0.01008606 C4.17586703 -0.01515255 5.89323256 -0.01749447 7.6105957 -0.01733398 C10.23991089 -0.01951962 12.86880601 -0.03767561 15.49804688 -0.05664062 C17.16536315 -0.05957475 18.83268141 -0.06155942 20.5 -0.0625 C21.6813578 -0.07327827 21.6813578 -0.07327827 22.88658142 -0.08427429 C26.72945315 -0.06816842 28.54241202 -0.01469407 31.81640625 2.16796875 C32.12032438 5.12381146 32.23631716 7.86637248 32.21484375 10.82421875 C32.21771393 11.68229126 32.22058411 12.54036377 32.22354126 13.42443848 C32.22558441 15.2401597 32.22003703 17.05590281 32.20751953 18.87158203 C32.19146903 21.65707431 32.20735931 24.44111556 32.2265625 27.2265625 C32.22458011 28.98828447 32.22073653 30.75000552 32.21484375 32.51171875 C32.22395279 33.76643982 32.22395279 33.76643982 32.23324585 35.04650879 C32.20458984 37.39257813 32.20458984 37.39257813 31.81640625 41.16796875 C28.81640625 43.16796875 28.81640625 43.16796875 25.75390625 43.04296875 C22.81640625 42.16796875 22.81640625 42.16796875 21.64501953 40.50683594 C20.58715135 37.52086742 20.59121453 35.03829118 20.62109375 31.87109375 C20.62753906 30.66582031 20.63398438 29.46054688 20.640625 28.21875 C20.65738281 26.96449219 20.67414063 25.71023437 20.69140625 24.41796875 C20.70042969 23.14824219 20.70945312 21.87851563 20.71875 20.5703125 C20.7423162 17.43600782 20.77521793 14.30208334 20.81640625 11.16796875 C19.92332764 11.19415283 19.03024902 11.22033691 18.11010742 11.24731445 C14.79451394 11.33256209 11.48008506 11.39522463 8.16381836 11.44262695 C6.72906111 11.46776399 5.29443184 11.50187983 3.86010742 11.54516602 C1.79704255 11.6058654 -0.2643299 11.63418228 -2.328125 11.65625 C-4.18981323 11.69552612 -4.18981323 11.69552612 -6.08911133 11.7355957 C-9.18359375 11.16796875 -9.18359375 11.16796875 -11.1550293 8.80932617 C-12.18359375 6.16796875 -12.18359375 6.16796875 -11.49609375 3.41796875 C-8.8878402 -1.05332304 -4.64934299 0.00655259 0 0 Z " fill="#000000" transform="translate(390.18359375,78.83203125)"/>
<path d="M0 0 C1.2148407 -0.00287018 1.2148407 -0.00287018 2.45422363 -0.00579834 C4.16561189 -0.00715861 5.87701051 -0.00347316 7.58837891 0.00488281 C10.20889448 0.01558475 12.82872452 0.0049824 15.44921875 -0.0078125 C17.11198068 -0.00649088 18.77474218 -0.00392843 20.4375 0 C21.22193481 -0.00404846 22.00636963 -0.00809692 22.8145752 -0.01226807 C26.6438038 0.02076254 28.45690682 0.09106288 31.71875 2.265625 C32.59375 4.078125 32.59375 4.078125 32.71875 6.265625 C31.6550293 8.87182617 31.6550293 8.87182617 29.71875 11.265625 C26.62426758 11.83325195 26.62426758 11.83325195 22.86328125 11.75390625 C22.20164474 11.74683151 21.54000824 11.73975677 20.85832214 11.73246765 C18.74814015 11.70451007 16.6406274 11.64178347 14.53125 11.578125 C13.09964775 11.55304324 11.66800383 11.53022983 10.23632812 11.50976562 C6.7296035 11.45468347 3.22443729 11.36840789 -0.28125 11.265625 C-0.27077637 12.06258789 -0.26030273 12.85955078 -0.24951172 13.68066406 C-0.20793228 17.29228562 -0.18191739 20.90385679 -0.15625 24.515625 C-0.13949219 25.76988281 -0.12273437 27.02414063 -0.10546875 28.31640625 C-0.09902344 29.52167969 -0.09257813 30.72695312 -0.0859375 31.96875 C-0.07546387 33.07895508 -0.06499023 34.18916016 -0.05419922 35.33300781 C-0.27946343 38.24254947 -0.60735954 39.89189622 -2.28125 42.265625 C-5.21875 43.140625 -5.21875 43.140625 -8.28125 43.265625 C-9.27125 42.605625 -10.26125 41.945625 -11.28125 41.265625 C-11.58516813 38.30978229 -11.70116091 35.56722127 -11.6796875 32.609375 C-11.68255768 31.75130249 -11.68542786 30.89322998 -11.68838501 30.00915527 C-11.69042816 28.19343405 -11.68488078 26.37769094 -11.67236328 24.56201172 C-11.65631278 21.77651944 -11.67220306 18.99247819 -11.69140625 16.20703125 C-11.68942386 14.44530928 -11.68558028 12.68358823 -11.6796875 10.921875 C-11.68576019 10.08539429 -11.69183289 9.24891357 -11.6980896 8.38708496 C-11.66943359 6.04101562 -11.66943359 6.04101562 -11.28125 2.265625 C-7.47781251 -0.26999999 -4.40619726 -0.02274035 0 0 Z " fill="#000000" transform="translate(101.28125,78.734375)"/>
<path d="M0 0 C0.78769775 -0.00428513 1.57539551 -0.00857025 2.38696289 -0.01298523 C4.05125976 -0.01872454 5.71558171 -0.01923172 7.37988281 -0.01489258 C9.92816834 -0.01173033 12.47529533 -0.03520324 15.0234375 -0.06054688 C16.64062353 -0.06281967 18.25781269 -0.06352346 19.875 -0.0625 C20.63756104 -0.07170975 21.40012207 -0.08091949 22.18579102 -0.09040833 C27.40021839 -0.04471634 27.40021839 -0.04471634 29.953125 1.59692383 C31.65636642 4.54506913 30.70000683 7.1334452 29.9375 10.30078125 C26.73050212 11.90428019 23.24148791 11.46380485 19.71875 11.46875 C18.49822937 11.4737426 18.49822937 11.4737426 17.25305176 11.47883606 C15.5314999 11.483902 13.80993821 11.48624449 12.08837891 11.48608398 C9.44807877 11.48827248 6.80819503 11.50643692 4.16796875 11.52539062 C2.49739727 11.52832416 0.82682379 11.53030922 -0.84375 11.53125 C-1.63648315 11.53843552 -2.42921631 11.54562103 -3.24597168 11.55302429 C-8.83367318 11.52960807 -8.83367318 11.52960807 -11.0625 9.30078125 C-11.375 5.80078125 -11.375 5.80078125 -11.0625 2.30078125 C-7.31330161 -0.19868434 -4.34288795 -0.00519059 0 0 Z " fill="#000000" transform="translate(314.0625,445.69921875)"/>
</svg>
