<?xml version="1.0" encoding="UTF-8"?>
<svg version="1.1" xmlns="http://www.w3.org/2000/svg" width="512" height="512">
<path d="M0 0 C35.27774622 24.91645013 54.6985472 62.34131886 63.36694336 103.87036133 C63.77303119 106.32402188 64.07093632 108.75906127 64.34034729 111.23075867 C64.42913934 112.04177882 64.51793139 112.85279898 64.6094141 113.6883955 C64.67643245 114.30684999 64.74345079 114.92530447 64.8125 115.5625 C65.64371746 115.55881283 66.47493492 115.55512566 67.33134079 115.55132675 C87.54478177 115.46303846 107.75818957 115.39682096 127.97178268 115.35525131 C137.74688384 115.33461486 147.52185639 115.3064736 157.296875 115.26074219 C165.81551995 115.22090754 174.33407178 115.19507507 182.85280728 115.18614602 C187.36460219 115.18092554 191.87613065 115.16863316 196.38784027 115.13957977 C200.63300474 115.11246386 204.87779259 115.10404719 209.12303543 115.11006927 C210.68233155 115.10896731 212.24164004 115.10099047 213.80086136 115.0856781 C215.9281508 115.06580881 218.05401379 115.07054801 220.18133545 115.08148193 C221.96777025 115.07595118 221.96777025 115.07595118 223.79029465 115.07030869 C226.8125 115.5625 226.8125 115.5625 229.19688416 116.91711426 C231.80585214 121.18900025 231.34815196 125.46171902 231.29351807 130.36968994 C231.29693577 131.48383388 231.30035347 132.59797782 231.30387473 133.7458837 C231.31048218 137.49263175 231.28842917 141.23866912 231.26660156 144.98535156 C231.2654737 147.66572692 231.26592944 150.34605825 231.26837158 153.02642822 C231.27046976 158.80393123 231.25791186 164.58125366 231.23542023 170.35871124 C231.20292232 178.71193004 231.19249549 187.06506144 231.18746826 195.4183366 C231.17871213 208.97067235 231.15208794 222.52291184 231.11425781 236.07519531 C231.07754595 249.24055499 231.04923016 262.40588853 231.03222656 275.57128906 C231.03117567 276.38270097 231.03012477 277.19411287 231.02904204 278.03011301 C231.02382191 282.10069769 231.01876707 286.17128255 231.01379442 290.24186754 C230.97232248 324.01548151 230.90186541 357.78897896 230.8125 391.5625 C231.43282228 391.55063502 232.05314457 391.53877005 232.6922645 391.52654552 C233.50473738 391.51731721 234.31721027 391.50808889 235.15430355 391.49858093 C235.96025083 391.48671596 236.76619812 391.47485098 237.59656805 391.46262646 C239.8125 391.5625 239.8125 391.5625 242.34364319 392.58520508 C244.57985164 395.59546692 244.36175978 398.59620607 244.31420898 402.19921875 C244.31961197 402.9751236 244.32501495 403.75102844 244.33058167 404.55044556 C244.34309759 407.11735075 244.32655977 409.68314056 244.30859375 412.25 C244.30874867 414.03214578 244.31023653 415.81429191 244.31300354 417.59643555 C244.31438881 421.33234543 244.30180825 425.06787199 244.27905273 428.80371094 C244.2506676 433.59581331 244.25340365 438.38727859 244.26614285 443.1794281 C244.27309323 446.85971532 244.2653181 450.53985492 244.25288582 454.22012329 C244.24836507 455.98718703 244.24803994 457.75426659 244.25195122 459.52133179 C244.25485721 461.98981281 244.23838665 464.45741162 244.21655273 466.92578125 C244.22105438 467.65834137 244.22555603 468.39090149 244.23019409 469.1456604 C244.15773777 474.06834346 244.15773777 474.06834346 242.4747467 476.47729492 C238.46061766 479.09793674 234.24647715 478.704189 229.64863777 478.69392776 C228.80248738 478.6959804 227.95633699 478.69803303 227.08454567 478.70014787 C224.22416558 478.705842 221.36383328 478.70435765 218.50344849 478.70294189 C216.44202203 478.70552414 214.38059608 478.7085369 212.31917083 478.7119453 C206.63481254 478.72003492 200.95046687 478.72180595 195.26610351 478.72254276 C189.14330056 478.72438989 183.02050422 478.73193543 176.89770508 478.73867798 C162.8024644 478.7529845 148.70722788 478.75878936 134.61198169 478.76336992 C127.64945642 478.76570473 120.68693199 478.76930722 113.72440737 478.7730653 C89.89942342 478.78590086 66.07443993 478.79662063 42.24945259 478.8000679 C40.75355112 478.80028954 39.25764966 478.80051132 37.76174819 478.80073325 C36.26220031 478.80095389 34.76265243 478.80117438 33.26310456 478.8013947 C30.25466736 478.80183726 27.24623016 478.80228437 24.23779297 478.80273438 C23.49187408 478.80284377 22.74595518 478.80295316 21.97743269 478.80306586 C-2.21848778 478.8066979 -26.41437832 478.82262347 -50.61028733 478.84592474 C-76.18105685 478.8705051 -101.75180926 478.88423988 -127.32259095 478.88543582 C-130.12803595 478.88560728 -132.93348094 478.88582271 -135.73892593 478.88607025 C-136.42972456 478.88612602 -137.12052318 478.88618179 -137.8322551 478.88623925 C-148.96214884 478.88739118 -160.09201192 478.89842515 -171.22189529 478.91295731 C-182.40241585 478.9273035 -193.58289753 478.93031682 -204.76342832 478.92251733 C-210.82370468 478.9185983 -216.88387761 478.91960131 -222.94414139 478.93357468 C-228.48697754 478.94623856 -234.02963171 478.94518263 -239.57246734 478.93298396 C-241.58254926 478.93101388 -243.59264375 478.93416529 -245.60270797 478.94282833 C-248.32601447 478.95382646 -251.04866797 478.94650034 -253.77195549 478.9344368 C-254.5601356 478.94203199 -255.34831571 478.94962718 -256.16038007 478.95745254 C-261.11729244 478.90974885 -264.61456187 478.13543813 -268.1875 474.5625 C-268.30377797 472.08385636 -268.35548799 469.63268493 -268.36450195 467.15283203 C-268.37107315 466.37721924 -268.37764435 465.60160645 -268.38441467 464.80249023 C-268.40419308 462.22509679 -268.41581974 459.64776171 -268.42578125 457.0703125 C-268.42985678 456.19236904 -268.4339323 455.31442558 -268.43813133 454.40987778 C-268.45901058 449.76397688 -268.47330474 445.11810568 -268.48266602 440.47216797 C-268.49373983 435.66430237 -268.5281454 430.85689842 -268.56783772 426.04919624 C-268.59393596 422.3603731 -268.60235173 418.67166111 -268.60594749 414.98275375 C-268.61083039 413.21007033 -268.62249251 411.43739242 -268.64098549 409.66479874 C-268.66523555 407.18647544 -268.66443845 404.70936169 -268.6574707 402.23095703 C-268.67668579 401.12740372 -268.67668579 401.12740372 -268.69628906 400.0015564 C-268.66547323 397.00238667 -268.53226497 395.02769763 -266.72062683 392.58322144 C-264.03565272 391.50131326 -262.39277521 391.45662826 -259.52917957 391.49870491 C-258.71672458 391.50791533 -257.9042696 391.51712574 -257.06719476 391.52661526 C-256.44689549 391.53845723 -255.82659622 391.55029919 -255.1875 391.5625 C-255.18977832 390.7014627 -255.18977832 390.7014627 -255.19210267 389.82303071 C-255.28156835 355.81977017 -255.3502226 321.81653634 -255.39176132 287.8131838 C-255.39676429 283.73255202 -255.40194156 279.65192048 -255.40722656 275.57128906 C-255.4082758 274.75889109 -255.40932505 273.94649311 -255.41040608 273.10947701 C-255.42782272 259.94629438 -255.45936731 246.78318145 -255.49611118 233.62004021 C-255.53348563 220.11863708 -255.55572844 206.61727052 -255.56385398 193.11581779 C-255.56934903 184.78119463 -255.58671943 176.44676848 -255.61916587 168.11220595 C-255.64027065 162.4008894 -255.64670924 156.68967504 -255.64150551 150.9783223 C-255.63893737 147.68053831 -255.64510976 144.38317305 -255.6643219 141.08543396 C-255.6841189 137.51324062 -255.67947603 133.94190158 -255.66851807 130.36968994 C-255.68599512 128.79966009 -255.68599512 128.79966009 -255.70382524 127.19791245 C-255.64644369 120.31396768 -255.64644369 120.31396768 -253.57188416 116.91711426 C-250.40277911 115.11668505 -248.20092224 115.07019838 -244.55633545 115.08148193 C-243.89138227 115.07806423 -243.22642909 115.07464653 -242.54132581 115.07112527 C-240.31454599 115.06453973 -238.08897331 115.08653139 -235.86230469 115.10839844 C-234.26567615 115.10952678 -232.66904554 115.10889331 -231.07241821 115.10662842 C-226.73790099 115.10547982 -222.40382571 115.12901256 -218.06941128 115.15692425 C-213.53972547 115.18191366 -209.01002975 115.18427796 -204.48028564 115.18902588 C-195.90257377 115.2014629 -187.32506558 115.23429432 -178.74744344 115.27442384 C-168.98214807 115.31911896 -159.21684302 115.3411229 -149.45147085 115.36120558 C-129.36336684 115.40302633 -109.27544625 115.4733925 -89.1875 115.5625 C-89.05735504 114.54435715 -88.92721008 113.52621429 -88.79312134 112.47721863 C-88.6169295 111.12175859 -88.4406019 109.7663162 -88.26416016 108.41088867 C-88.1364901 107.40780293 -88.1364901 107.40780293 -88.00624084 106.38445282 C-87.26749062 100.74380274 -86.1055989 95.34357163 -84.5625 89.875 C-84.30452637 88.95001709 -84.04655273 88.02503418 -83.78076172 87.07202148 C-73.37288536 50.9944536 -52.36318064 17.14785999 -19.87890625 -2.859375 C-12.22499807 -6.9449967 -6.96529942 -4.3130782 0 0 Z M-33.8125 27.6875 C-41.04229064 34.91729064 -46.78148882 42.91390019 -52.1875 51.5625 C-52.78046875 52.47773437 -53.3734375 53.39296875 -53.984375 54.3359375 C-55.42519395 56.58058349 -55.42519395 56.58058349 -55.1875 59.5625 C-43.84594245 70.53522641 -25.33373888 73.95876989 -10.21704102 73.93359375 C4.83483019 73.55951804 18.61427834 68.37232675 30.8125 59.5625 C28.72055278 43.58234764 8.98159043 25.72292309 -3.39453125 15.9609375 C-15.93891637 6.65540411 -24.1041285 18.17809603 -33.8125 27.6875 Z M-63.1875 72.5625 C-67.88201193 85.74552865 -71.81872309 98.76059124 -74.1875 112.5625 C-74.41308594 113.80644531 -74.63867188 115.05039063 -74.87109375 116.33203125 C-81.93914804 163.66362237 -71.32845535 214.1748728 -55.1875 258.5625 C-26.8075 258.5625 1.5725 258.5625 30.8125 258.5625 C36.93271414 240.2399009 36.93271414 240.2399009 42 221.6875 C42.16614807 221.01238373 42.33229614 220.33726746 42.503479 219.64169312 C45.5148551 207.37479039 48.08698329 195.08072409 49.8125 182.5625 C49.98604004 181.31992432 49.98604004 181.31992432 50.16308594 180.05224609 C54.64106553 146.33452142 54.53725147 104.68095555 38.8125 73.5625 C37.8225 73.0675 37.8225 73.0675 36.8125 72.5625 C34.68871771 73.71098313 32.66986672 74.91112531 30.625 76.1875 C11.3153368 87.67393946 -11.34676801 90.31066596 -33.09521484 85.10595703 C-42.38838518 82.71903615 -50.34140472 79.17696827 -58.4921875 74.13671875 C-60.95510919 72.39438739 -60.95510919 72.39438739 -63.1875 72.5625 Z M-240.1875 129.5625 C-240.1875 216.0225 -240.1875 302.4825 -240.1875 391.5625 C-235.2375 391.5625 -230.2875 391.5625 -225.1875 391.5625 C-225.18511165 390.31806216 -225.18272329 389.07362432 -225.18026257 387.79147625 C-225.12293837 358.27012353 -225.05023332 328.74885041 -224.95851372 299.22758658 C-224.94724517 295.59630481 -224.93610678 291.96502265 -224.92504883 288.33374023 C-224.92284514 287.61079839 -224.92064146 286.88785655 -224.918371 286.14300738 C-224.88297082 274.42769934 -224.85812207 262.71239138 -224.83715298 250.99704965 C-224.81541255 238.9815704 -224.78237897 226.96616073 -224.73879844 214.95074064 C-224.71463711 208.19951942 -224.69574762 201.4483676 -224.68988609 194.6971035 C-224.68386317 188.34830287 -224.663965 181.99969998 -224.63322449 175.65097237 C-224.62439928 173.31565089 -224.62073087 170.98030362 -224.62249184 168.64496613 C-224.62413241 165.4665855 -224.60754953 162.28881649 -224.58622742 159.11051941 C-224.59107499 158.17764845 -224.59592257 157.24477748 -224.60091704 156.2836377 C-224.5914605 155.43468283 -224.58200396 154.58572795 -224.57226086 153.71104717 C-224.57036225 152.97704777 -224.56846365 152.24304838 -224.56650752 151.48680657 C-224.07628205 148.99782141 -223.16802061 148.10310318 -221.1875 146.5625 C-218.78809834 146.17773914 -218.78809834 146.17773914 -215.89143372 146.16377258 C-214.7934697 146.15123444 -213.69550568 146.13869629 -212.56427002 146.1257782 C-210.75705475 146.12793083 -210.75705475 146.12793083 -208.91333008 146.13012695 C-207.64492783 146.1199353 -206.37652557 146.10974365 -205.06968689 146.09924316 C-201.59061398 146.07162604 -198.11170451 146.06238236 -194.63253617 146.05638909 C-190.99695732 146.04701759 -187.36150115 146.02081526 -183.72599792 145.99638367 C-176.84125807 145.95268114 -169.95654197 145.92415731 -163.07170552 145.90106028 C-155.23374611 145.87402866 -147.39590988 145.83011595 -139.55803835 145.78477156 C-123.43458565 145.69187156 -107.3111153 145.62081425 -91.1875 145.5625 C-90.8575 140.2825 -90.5275 135.0025 -90.1875 129.5625 C-139.6875 129.5625 -189.1875 129.5625 -240.1875 129.5625 Z M65.8125 129.5625 C66.1425 134.8425 66.4725 140.1225 66.8125 145.5625 C69.2454821 145.57129936 69.2454821 145.57129936 71.72761536 145.58027649 C86.98742812 145.6374032 102.24708559 145.70993327 117.50674915 145.79821491 C125.35254894 145.84320796 133.19830298 145.88261442 141.04418945 145.90893555 C147.88152934 145.93188734 154.71872488 145.9652535 161.55595034 146.01120156 C165.17726876 146.03517211 168.79844387 146.05387564 172.41983986 146.06011391 C176.45954454 146.06726767 180.49874949 146.0976688 184.53833008 146.13012695 C185.74314026 146.12869186 186.94795044 146.12725677 188.18927002 146.1257782 C189.83621605 146.14458542 189.83621605 146.14458542 191.51643372 146.16377258 C192.47233304 146.16838155 193.42823236 146.17299051 194.41309834 146.17773914 C197.31081805 146.64240879 198.01480001 147.29230928 199.8125 149.5625 C200.19150752 151.48680657 200.19150752 151.48680657 200.19726086 153.71104717 C200.2067174 154.56000205 200.21617394 155.40895692 200.22591704 156.2836377 C200.22106947 157.21650867 200.21622189 158.14937963 200.21122742 159.11051941 C200.21787424 160.10130235 200.22452107 161.0920853 200.23136932 162.11289197 C200.25008963 165.44800436 200.24738793 168.78276083 200.24487305 172.11791992 C200.25388468 174.50257376 200.26421041 176.88722294 200.27575684 179.27186584 C200.3005475 185.08480137 200.31158736 190.89764705 200.31663426 196.71063062 C200.32324265 203.47363191 200.34669981 210.23654257 200.37122939 216.99949876 C200.41452687 229.06043959 200.44447668 241.12137526 200.46606445 253.18237305 C200.48706529 264.89952127 200.51433253 276.61662722 200.55004883 288.33374023 C200.55224765 289.05580499 200.55444648 289.77786975 200.55671193 290.52181526 C200.56778136 294.14414892 200.57897421 297.76648219 200.59022844 301.38881528 C200.68345544 331.44667338 200.7548121 361.5045514 200.8125 391.5625 C205.7625 391.5625 210.7125 391.5625 215.8125 391.5625 C215.8125 305.1025 215.8125 218.6425 215.8125 129.5625 C166.3125 129.5625 116.8125 129.5625 65.8125 129.5625 Z M-210.1875 159.5625 C-210.1875 236.1225 -210.1875 312.6825 -210.1875 391.5625 C-79.5075 391.5625 51.1725 391.5625 185.8125 391.5625 C185.8125 315.0025 185.8125 238.4425 185.8125 159.5625 C146.2125 159.5625 106.6125 159.5625 65.8125 159.5625 C66.78366734 164.4183367 67.7501046 166.28116316 70.4375 170.25 C83.5790636 190.82403872 88.06366862 216.66281077 90.8125 240.5625 C90.9669458 241.86380859 90.9669458 241.86380859 91.12451172 243.19140625 C92.55555163 255.76104589 93.04769956 268.34114354 93.16397095 280.98361206 C93.17960245 282.57232798 93.2013493 284.160996 93.2293396 285.74954224 C93.26497586 287.98581331 93.27326245 290.22050998 93.2734375 292.45703125 C93.28165527 293.75487549 93.28987305 295.05271973 93.29833984 296.38989258 C92.8125 299.5625 92.8125 299.5625 90.9675293 301.50830078 C87.81941426 303.0482986 86.11924444 302.61407007 82.8125 301.5625 C80.28515625 299.55859375 80.28515625 299.55859375 77.875 297 C77.00488281 296.08476562 76.13476562 295.16953125 75.23828125 294.2265625 C72.75933339 291.5041109 70.31857237 288.75918965 67.92578125 285.9609375 C64.36645224 281.92132935 60.65636526 278.02063264 56.96191406 274.10473633 C53.12255595 270.02018724 49.43217102 265.84329815 45.8125 261.5625 C43.72017342 263.35009383 43.72017342 263.35009383 43.19921875 265.47265625 C42.36274905 268.04748755 41.65100894 269.54829737 39.8125 271.5625 C36.70629883 272.16577148 36.70629883 272.16577148 33.14453125 272.30859375 C31.37106323 272.39451782 31.37106323 272.39451782 29.56176758 272.48217773 C28.65450928 272.50868408 27.74725098 272.53519043 26.8125 272.5625 C26.79791748 273.54645752 26.78333496 274.53041504 26.76831055 275.54418945 C26.71033002 279.19543774 26.63309815 282.84606911 26.55004883 286.49682617 C26.51679812 288.07680243 26.48876654 289.65689752 26.46606445 291.23706055 C26.43251984 293.50881579 26.38020773 295.77948203 26.32421875 298.05078125 C26.31782883 298.75713211 26.3114389 299.46348297 26.30485535 300.1912384 C26.15972823 305.0335961 26.15972823 305.0335961 24.70539856 307.24885559 C21.8646714 309.22027943 19.52520643 308.94401319 16.09375 308.95068359 C15.07619629 308.95856903 15.07619629 308.95856903 14.03808594 308.96661377 C11.79598965 308.97981635 9.55460349 308.97107538 7.3125 308.9609375 C5.7545559 308.96295818 4.19661273 308.96586956 2.63867188 308.96963501 C-0.62639369 308.97405869 -3.89121305 308.96762609 -7.15625 308.95361328 C-11.34301349 308.93652113 -15.52920007 308.94636211 -19.71594238 308.96433067 C-22.93298699 308.97516746 -26.14989465 308.97172271 -29.36694336 308.9639473 C-30.9107266 308.96194499 -32.45452225 308.96440566 -33.99829102 308.97138596 C-36.15544604 308.97899901 -38.31166478 308.96739972 -40.46875 308.95068359 C-41.69658203 308.94829681 -42.92441406 308.94591003 -44.18945312 308.94345093 C-47.1875 308.5625 -47.1875 308.5625 -49.08039856 307.24885559 C-50.92785401 304.43478028 -50.66971935 301.31168497 -50.69921875 298.05078125 C-50.71716995 297.32255661 -50.73512115 296.59433197 -50.75361633 295.84403992 C-50.80774213 293.52108529 -50.8416208 291.19833634 -50.875 288.875 C-50.90817125 287.29879949 -50.94266073 285.72262612 -50.97851562 284.14648438 C-51.0634693 280.28530464 -51.13026876 276.42418613 -51.1875 272.5625 C-52.08750732 272.54904541 -52.98751465 272.53559082 -53.91479492 272.52172852 C-55.09146729 272.47459717 -56.26813965 272.42746582 -57.48046875 272.37890625 C-58.64860107 272.34482666 -59.8167334 272.31074707 -61.02026367 272.27563477 C-64.1875 271.5625 -64.1875 271.5625 -66.19726562 269.15429688 C-67.42393255 266.654986 -68.3981718 264.23071986 -69.1875 261.5625 C-72.9895499 264.3276272 -75.88209969 267.41996353 -78.91015625 270.96484375 C-82.47959759 275.03633344 -86.20552816 278.95990099 -89.91162109 282.90673828 C-94.09810939 287.37299724 -98.19860937 291.89800955 -102.22265625 296.51171875 C-104.41111327 298.79589357 -106.59710975 300.74345207 -109.1875 302.5625 C-112.91456873 302.41634044 -114.52961707 302.22038293 -117.1875 299.5625 C-117.4621582 296.63037109 -117.4621582 296.63037109 -117.48828125 292.8359375 C-117.4966803 291.80552086 -117.4966803 291.80552086 -117.50524902 290.75428772 C-117.51730351 288.48181102 -117.51078909 286.20997804 -117.5 283.9375 C-117.49817719 283.15674103 -117.49635437 282.37598206 -117.49447632 281.57156372 C-117.34609149 243.63096505 -114.88069439 197.73858971 -91.7265625 166.0859375 C-89.84036573 163.48596554 -89.84036573 163.48596554 -90.1875 159.5625 C-129.7875 159.5625 -169.3875 159.5625 -210.1875 159.5625 Z M-88.1875 188.5625 C-91.11206273 194.72523656 -93.3940128 200.85792227 -95.1875 207.4375 C-95.44168701 208.36933105 -95.69587402 209.30116211 -95.95776367 210.26123047 C-100.78015835 228.81640343 -103.47638089 248.62236569 -103.25 267.8125 C-103.24548828 268.56917969 -103.24097656 269.32585937 -103.23632812 270.10546875 C-103.22481517 271.92451555 -103.2068967 273.74352018 -103.1875 275.5625 C-99.23191361 272.6857099 -96.21994228 269.40683187 -93.06542969 265.71630859 C-91.188965 263.56418022 -89.24627566 261.50576572 -87.2578125 259.45703125 C-86.28328125 258.44672852 -86.28328125 258.44672852 -85.2890625 257.41601562 C-83.95414129 256.03756438 -82.61281043 254.66529579 -81.265625 253.29882812 C-80.62367188 252.62916016 -79.98171875 251.95949219 -79.3203125 251.26953125 C-78.74168457 250.6763208 -78.16305664 250.08311035 -77.56689453 249.47192383 C-75.81005746 247.04002601 -75.39917006 245.56693518 -75.1875 242.5625 C-75.6785566 239.91414737 -76.24610868 237.42049983 -76.953125 234.83203125 C-77.2442215 233.70809212 -77.2442215 233.70809212 -77.54119873 232.56144714 C-78.16320797 230.16318934 -78.7989639 227.76890615 -79.4375 225.375 C-82.67898038 213.1667777 -85.32106138 201.06037418 -87.1875 188.5625 C-87.5175 188.5625 -87.8475 188.5625 -88.1875 188.5625 Z M62.8125 188.5625 C62.66216309 189.38113525 62.51182617 190.19977051 62.35693359 191.04321289 C61.64243276 194.90545985 60.91835074 198.76581988 60.1875 202.625 C60.05544159 203.32357117 59.92338318 204.02214233 59.787323 204.74188232 C57.81039773 215.12957155 55.50361928 225.35256414 52.55419922 235.51586914 C52.31072754 236.37946045 52.06725586 237.24305176 51.81640625 238.1328125 C51.59799072 238.87289551 51.3795752 239.61297852 51.15454102 240.37548828 C50.73697774 243.04538964 51.07011764 244.97367259 51.8125 247.5625 C53.62220159 249.81857442 53.62220159 249.81857442 55.9375 251.875 C59.46037412 255.24253479 62.73403787 258.67541696 65.91015625 262.3671875 C68.3031574 265.12872065 70.73910518 267.8501777 73.1875 270.5625 C74.04085938 271.51125 74.89421875 272.46 75.7734375 273.4375 C76.78277344 274.489375 76.78277344 274.489375 77.8125 275.5625 C78.1425 275.5625 78.4725 275.5625 78.8125 275.5625 C79.8958517 247.1144869 75.83753878 215.97732897 64.8125 189.5625 C64.1525 189.2325 63.4925 188.9025 62.8125 188.5625 Z M-37.1875 272.5625 C-37.1875 279.8225 -37.1875 287.0825 -37.1875 294.5625 C-20.6875 294.5625 -4.1875 294.5625 12.8125 294.5625 C12.8125 287.3025 12.8125 280.0425 12.8125 272.5625 C-3.6875 272.5625 -20.1875 272.5625 -37.1875 272.5625 Z M-254.1875 405.5625 C-254.1875 424.7025 -254.1875 443.8425 -254.1875 463.5625 C-94.4675 463.5625 65.2525 463.5625 229.8125 463.5625 C229.8125 444.4225 229.8125 425.2825 229.8125 405.5625 C210.31447342 405.26860884 190.81825011 405.02932887 171.31856823 404.88894176 C162.26373481 404.82201382 153.21037888 404.7308379 144.15649414 404.58178711 C136.26146898 404.45187658 128.36751399 404.3682664 120.47144967 404.33934957 C116.29298963 404.32245372 112.1175899 404.28299969 107.94011497 404.18800926 C104.00004942 404.09915079 100.06427487 404.07266135 96.12330246 404.09210014 C94.68444585 404.08854976 93.24543243 404.06302947 91.80744743 404.01282883 C84.05590116 403.70167249 84.05590116 403.70167249 77.1762526 406.81754136 C74.03421184 409.88183202 71.46319661 413.30237896 68.97860301 416.90859187 C67.17010638 419.47362023 65.14414772 421.84969505 63.125 424.25 C59.50910344 428.67882294 55.95990897 433.15753579 52.44140625 437.6640625 C50.8125 439.5625 50.8125 439.5625 48.8125 440.5625 C47.202171 440.66572507 45.58764733 440.70631246 43.9740448 440.71640015 C42.95199448 440.72500061 41.92994415 440.73360107 40.87692261 440.74246216 C39.75117828 440.74672211 38.62543396 440.75098206 37.46557617 440.75537109 C35.69228188 440.76763733 35.69228188 440.76763733 33.88316345 440.78015137 C29.95727898 440.80503575 26.03140201 440.82167876 22.10546875 440.8359375 C20.75405686 440.84129725 19.40264504 440.84667476 18.05123329 440.85206985 C12.42977288 440.87369829 6.80831534 440.89243503 1.18682384 440.90369225 C-6.86984956 440.91993205 -14.92604072 440.95311007 -22.98253232 441.01009309 C-28.64714752 441.04879269 -34.31163374 441.0683249 -39.97637767 441.07361281 C-43.35983014 441.07726636 -46.74276827 441.0892862 -50.12607765 441.12171555 C-53.90189183 441.15321761 -57.67648233 441.15342555 -61.45239258 441.14599609 C-63.13190002 441.1706041 -63.13190002 441.1706041 -64.84533691 441.19570923 C-72.44790686 441.13433976 -72.44790686 441.13433976 -76.29154968 438.1625061 C-76.91721329 437.30450409 -77.54287689 436.44650208 -78.1875 435.5625 C-79.21230469 434.48162109 -79.21230469 434.48162109 -80.2578125 433.37890625 C-86.10396507 426.96592139 -91.47167937 420.24791969 -96.75292969 413.37011719 C-97.22633789 412.77360352 -97.69974609 412.17708984 -98.1875 411.5625 C-98.74449081 410.54926666 -99.30148163 409.53603333 -99.87535095 408.49209595 C-101.8728424 406.13494662 -102.97884251 405.60225203 -106.05547142 405.01611328 C-109.91630611 404.8210128 -113.75353216 404.82009329 -117.61645508 404.88134766 C-119.1048577 404.88304079 -120.59326533 404.88208875 -122.08166504 404.87869263 C-126.11680437 404.87697204 -130.15087221 404.91223082 -134.18576264 404.95413637 C-138.40444131 404.99166059 -142.62314492 404.99517004 -146.84196472 405.00228882 C-154.82833559 405.0209328 -162.81421329 405.07016343 -170.80036706 405.13038576 C-179.89334785 405.1974651 -188.98635227 405.23044342 -198.07951891 405.26055837 C-216.78251563 405.32326332 -235.48483634 405.43328991 -254.1875 405.5625 Z M-84.1875 405.5625 C-80.34753698 410.68245069 -76.52654035 415.65368884 -72.375 420.5 C-71.88580078 421.07556641 -71.39660156 421.65113281 -70.89257812 422.24414062 C-68.23447351 426.00839626 -68.23447351 426.00839626 -64.40570927 427.71627426 C-63.62319011 427.72963947 -62.84067095 427.74300468 -62.03443909 427.7567749 C-61.13878738 427.77404633 -60.24313568 427.79131775 -59.32034302 427.80911255 C-58.32976898 427.82279877 -57.33919495 427.83648499 -56.31860352 427.85058594 C-54.76240044 427.87730881 -54.76240044 427.87730881 -53.17475891 427.90457153 C-43.57688652 428.05932455 -33.97797728 428.14652272 -24.37913609 428.21456528 C-17.92836472 428.26072307 -11.47941166 428.32807157 -5.02954102 428.44726562 C1.20285527 428.5620283 7.43361993 428.62246763 13.66700935 428.6450882 C16.03976332 428.66284651 18.41245642 428.69963585 20.78460503 428.75609589 C33.73678572 429.67014069 33.73678572 429.67014069 45.39065552 425.23596191 C47.94677985 422.46615236 49.85730522 419.77424925 51.8125 416.5625 C53.33206193 414.6695413 54.87100356 412.79180581 56.4375 410.9375 C58.71967888 408.52174062 58.71967888 408.52174062 59.8125 405.5625 C12.2925 405.5625 -35.2275 405.5625 -84.1875 405.5625 Z " fill="#000000" transform="translate(268.1875,19.4375)"/>
<path d="M0 0 C6.77953454 5.0147588 11.634827 13.65765009 13.140625 21.87109375 C14.22759451 33.30440266 12.41102617 42.78309228 5.140625 51.87109375 C-2.23212586 59.51255535 -10.7432623 63.91342911 -21.421875 64.18359375 C-30.8848628 64.10271351 -39.83419599 60.8298607 -46.6328125 54.12109375 C-54.7730735 45.32823799 -57.24756755 37.40769683 -57.13671875 25.546875 C-56.48323438 16.88590614 -52.98071761 9.06030047 -46.859375 2.87109375 C-44.01210802 0.54679418 -41.07127937 -1.34821315 -37.859375 -3.12890625 C-37.26769531 -3.47050781 -36.67601562 -3.81210938 -36.06640625 -4.1640625 C-24.44548669 -9.67950997 -10.40317927 -6.31621599 0 0 Z M-35.734375 13.30859375 C-40.22702658 18.72620301 -42.41745934 22.71626873 -42.859375 29.87109375 C-41.95183377 36.3716216 -38.7787016 41.58988735 -33.859375 45.87109375 C-28.3697269 49.14376858 -23.10456291 49.74228767 -16.859375 48.87109375 C-10.19658735 46.81654076 -6.33296226 42.93857702 -2.75 37.046875 C-0.73670457 32.1284296 -0.96647706 25.78504211 -2.51171875 20.7421875 C-5.57051011 14.87403411 -10.44573152 10.7710964 -16.546875 8.49609375 C-23.77866858 7.1316044 -30.11622778 8.54538198 -35.734375 13.30859375 Z " fill="#000000" transform="translate(277.859375,164.12890625)"/>
<path d="M0 0 C3.00904444 2.82066436 3.92982654 4.49516084 4.50170898 8.609375 C4.52120099 9.98944696 4.51817135 11.36996698 4.49609375 12.75 C4.49754898 13.48573242 4.49900421 14.22146484 4.50050354 14.97949219 C4.49884939 16.52933731 4.48734227 18.07919968 4.46655273 19.62890625 C4.43758697 21.9929017 4.44595431 24.35465313 4.45898438 26.71875 C4.45274633 28.2291775 4.44435487 29.73959796 4.43359375 31.25 C4.43652939 31.9522168 4.43946503 32.65443359 4.44248962 33.37792969 C4.35948124 37.72455032 3.75255892 40.59013145 1 44 C-2.375 45.125 -2.375 45.125 -6 45 C-9.68322336 42.26711318 -10.87393151 40.76084896 -11.63110352 36.19116211 C-11.65716403 34.72011996 -11.65494196 33.24838634 -11.62890625 31.77734375 C-11.63131821 30.99484756 -11.63373016 30.21235138 -11.63621521 29.40614319 C-11.63523889 27.75793368 -11.62189628 26.10969052 -11.59692383 24.46166992 C-11.56255336 21.94141237 -11.57628742 19.42465213 -11.59570312 16.90429688 C-11.58880572 15.29946428 -11.57913428 13.6946407 -11.56640625 12.08984375 C-11.57136612 11.33871811 -11.57632599 10.58759247 -11.58143616 9.81370544 C-11.50366879 6.35507279 -11.25682706 4.34925857 -9.18334961 1.52954102 C-5.95347354 -0.73314193 -3.8409708 -0.61729888 0 0 Z " fill="#000000" transform="translate(284,339)"/>
<path d="M0 0 C4.12585202 0.66308336 5.05494193 1.23747075 7.5 4.5625 C7.910128 7.39135085 8.08507897 9.82453492 8.06640625 12.65234375 C8.07570412 13.82465294 8.07570412 13.82465294 8.08518982 15.02064514 C8.09228103 16.67057044 8.08912605 18.3205674 8.07641602 19.97045898 C8.06256154 22.4888144 8.09660976 25.00344345 8.13476562 27.52148438 C8.13571702 29.12760507 8.13385691 30.7337304 8.12890625 32.33984375 C8.14216446 33.08894516 8.15542267 33.83804657 8.16908264 34.60984802 C8.09903224 38.56399471 7.62469749 40.40041827 5.18725586 43.56860352 C2.5 45.5625 2.5 45.5625 -1.125 45.6875 C-4.5 44.5625 -4.5 44.5625 -6.18383789 42.4765625 C-7.81085097 38.87425714 -7.94981086 35.69169882 -7.93359375 31.8125 C-7.9388356 31.07676758 -7.94407745 30.34103516 -7.94947815 29.58300781 C-7.95587877 28.03321592 -7.95458677 26.48337532 -7.94604492 24.93359375 C-7.93752497 22.56942963 -7.96633447 20.20767635 -7.99804688 17.84375 C-7.99965894 16.33333405 -7.99908125 14.82291385 -7.99609375 13.3125 C-8.00732773 12.6102832 -8.01856171 11.90806641 -8.03013611 11.18457031 C-7.9802695 7.65391813 -7.55078878 5.64515236 -5.68774414 2.61328125 C-3.5 0.5625 -3.5 0.5625 0 0 Z " fill="#000000" transform="translate(231.5,338.4375)"/>
<path d="M0 0 C2.15209961 0.99438477 2.15209961 0.99438477 4 3 C4.41746041 5.94667824 4.58462034 8.51536236 4.56640625 11.46484375 C4.57570412 12.70942101 4.57570412 12.70942101 4.58518982 13.97914124 C4.5922914 15.73339667 4.58910799 17.48771946 4.57641602 19.24194336 C4.56256489 21.92492988 4.59659275 24.60441848 4.63476562 27.28710938 C4.63571698 28.99218835 4.63385712 30.69727169 4.62890625 32.40234375 C4.64216446 33.20349106 4.65542267 34.00463837 4.66908264 34.83006287 C4.60338368 38.76579779 4.3672757 40.60181515 1.65600586 43.54125977 C-1 45 -1 45 -4.125 44.9375 C-7.08852665 43.97113262 -8.09427652 43.3761735 -10 41 C-10.3105021 38.0942257 -10.44417817 35.40713903 -10.43359375 32.5 C-10.4388356 31.66791016 -10.44407745 30.83582031 -10.44947815 29.97851562 C-10.45589879 28.22006343 -10.45456077 26.46156829 -10.44604492 24.703125 C-10.43753048 22.00964103 -10.46630049 19.31827459 -10.49804688 16.625 C-10.49965885 14.9166673 -10.49908143 13.20833084 -10.49609375 11.5 C-10.50732773 10.69369141 -10.51856171 9.88738281 -10.53013611 9.05664062 C-10.46073788 3.50180219 -10.46073788 3.50180219 -8.15649414 0.9921875 C-5.22126906 -0.35828852 -3.19683217 -0.39960402 0 0 Z " fill="#000000" transform="translate(259,349)"/>
</svg>
